<svg xmlns="http://www.w3.org/2000/svg" xmlns:xlink="http://www.w3.org/1999/xlink" width="54" height="54" viewBox="0 0 54 54"><defs><style>.a{fill:none;}.b{fill:#79e9e8;}.c{clip-path:url(#a);}.d{fill:#273656;}</style><clipPath id="a"><rect class="a" width="54" height="54"/></clipPath></defs><path class="b" d="M210.613,104.933H208v-3.485h2.613V98.834H214.1v2.614h2.613v3.485H214.1v2.614h-3.484Z" transform="translate(-185.355 -88.073)"/><path class="b" d="M144,253.12h22.645v-5.228H144ZM163.161,271.4V257.477H147.484V271.4H144v2.614h22.645V271.4Z" transform="translate(-128.323 -220.904)"/><path class="b" d="M216.71,101.447v3.485H214.1v2.614h-3.484v-2.614H208v-3.485h2.613V98.833H214.1v2.614Z" transform="translate(-185.355 -88.073)"/><rect class="b" width="22.645" height="2.614" transform="translate(15.677 50.499)"/><rect class="b" width="15.677" height="13.926" transform="translate(19.161 36.573)"/><rect class="b" width="6.097" height="6.099" transform="translate(3.484 36.573)"/><rect class="b" width="6.097" height="6.099" transform="translate(44.419 36.573)"/><rect class="b" width="6.097" height="6.099" transform="translate(3.484 36.573)"/><rect class="b" width="6.097" height="6.099" transform="translate(44.419 36.573)"/><path class="b" d="M216.71,101.447v3.485H214.1v2.614h-3.484v-2.614H208v-3.485h2.613V98.833H214.1v2.614Z" transform="translate(-185.355 -88.073)"/><rect class="b" width="10.452" height="3.485" transform="translate(1.742 29.602)"/><rect class="b" width="10.452" height="3.485" transform="translate(41.806 29.602)"/><rect class="b" width="22.645" height="5.228" transform="translate(15.677 26.988)"/><rect class="b" width="17.419" height="2.614" transform="translate(18.29 0.855)"/><g class="c"><path class="d" d="M53.129,52.257H51.387V33.975h.871a.871.871,0,0,0,.871-.871V29.618a.871.871,0,0,0-.871-.871H42.677V3.485a.871.871,0,0,0-.871-.871H36.581V.871A.871.871,0,0,0,35.71,0H18.29a.871.871,0,0,0-.871.871V2.614H12.194a.871.871,0,0,0-.871.871V28.747H1.742a.871.871,0,0,0-.871.871V33.1a.871.871,0,0,0,.871.871h.871V52.257H.871A.871.871,0,0,0,.871,54H53.129a.871.871,0,0,0,0-1.743m-41.806,0H4.355v-8.7H9.581a.871.871,0,0,0,.871-.871v-6.1a.871.871,0,0,0-.871-.871H4.355V33.975h6.968ZM4.355,37.46H8.71v4.357H4.355Zm6.968-5.228H2.613V30.49h8.71Zm7.839-30.49H34.839v.871H19.161Zm18.29,50.515h-20.9v-.871h20.9ZM20.032,37.46h6.1V49.643h-6.1Zm7.839,0h6.1V49.643h-6.1Zm13.065,14.8H39.194V50.515a.871.871,0,0,0-.871-.871H35.71V36.589a.871.871,0,0,0-.871-.871H19.161a.871.871,0,0,0-.871.871V49.643H15.677a.871.871,0,0,0-.871.871v1.743H13.065V4.357H40.935Zm8.71-10.441H45.29V37.46h4.355Zm0-6.1H44.419a.871.871,0,0,0-.871.871v6.1a.871.871,0,0,0,.871.871h5.226v8.7H42.677V33.975h6.968ZM42.677,30.49h8.71v1.743h-8.71Z"/><path class="d" d="M202.613,98.672v1.743a.871.871,0,0,0,.871.871h3.484a.871.871,0,0,0,.871-.871V98.672h1.742a.871.871,0,0,0,.871-.871V94.315a.871.871,0,0,0-.871-.871h-1.742V91.7a.871.871,0,0,0-.871-.871h-3.484a.871.871,0,0,0-.871.871v1.743h-1.742a.871.871,0,0,0-.871.871V97.8a.871.871,0,0,0,.871.871Zm-.871-3.485h1.742a.871.871,0,0,0,.871-.871V92.573H206.1v1.743a.871.871,0,0,0,.871.871h1.742v1.743h-1.742a.871.871,0,0,0-.871.871v1.743h-1.742V97.8a.871.871,0,0,0-.871-.871h-1.742Z" transform="translate(-178.226 -80.941)"/><path class="d" d="M176.71,76.244A8.713,8.713,0,1,0,168,67.531a8.711,8.711,0,0,0,8.71,8.713m0-15.684a6.971,6.971,0,1,1-6.968,6.97,6.969,6.969,0,0,1,6.968-6.97" transform="translate(-149.71 -52.414)"/><path class="d" d="M136.871,246.86h22.645a.871.871,0,0,0,.871-.871V240.76a.871.871,0,0,0-.871-.871H136.871a.871.871,0,0,0-.871.871v5.228a.871.871,0,0,0,.871.871m10.452-1.743h-4.355v-3.485h4.355Zm1.742-3.485h4.355v3.485h-4.355Zm9.581,3.485h-3.484v-3.485h3.484Zm-20.9-3.485h3.484v3.485h-3.484Z" transform="translate(-121.194 -213.772)"/></g></svg>