<svg xmlns="http://www.w3.org/2000/svg" xmlns:xlink="http://www.w3.org/1999/xlink" width="54" height="54" viewBox="0 0 54 54"><defs><style>.a{fill:none;}.b{clip-path:url(#a);}.c{fill:#79e9e8;}.d{fill:#273656;}</style><clipPath id="a"><rect class="a" width="54" height="54"/></clipPath></defs><g class="b"><path class="c" d="M60.258,10.179v3.049H8V10.179A2.177,2.177,0,0,1,10.176,8h47.9a2.177,2.177,0,0,1,2.177,2.176Z" transform="translate(-7.129 -7.13)"/><path class="d" d="M50.952,45.3A3.052,3.052,0,0,0,54,42.248V3.049A3.052,3.052,0,0,0,50.952,0H3.048A3.052,3.052,0,0,0,0,3.049v39.2A3.052,3.052,0,0,0,3.048,45.3Zm-47.9-1.742a1.308,1.308,0,0,1-1.306-1.307V6.969H52.258V42.248a1.308,1.308,0,0,1-1.306,1.307ZM52.258,5.227H1.742V3.049A1.308,1.308,0,0,1,3.048,1.742h47.9a1.308,1.308,0,0,1,1.306,1.307Z"/><path class="d" d="M24.871,25.746h.871a.871.871,0,0,0,0-1.742h-.871a.871.871,0,0,0,0,1.742" transform="translate(-21.387 -21.391)"/><path class="d" d="M56.871,25.746h.871a.871.871,0,0,0,0-1.742h-.871a.871.871,0,0,0,0,1.742" transform="translate(-49.903 -21.391)"/><path class="d" d="M88.871,25.746h.871a.871.871,0,0,0,0-1.742h-.871a.871.871,0,0,0,0,1.742" transform="translate(-78.419 -21.391)"/><path class="d" d="M37.28,94.261H24.651a.871.871,0,0,0,0,1.742H37.28a.871.871,0,0,0,0-1.742" transform="translate(-21.191 -83.999)"/><path class="d" d="M37.28,118.265H24.651a.871.871,0,0,0,0,1.742H37.28a.871.871,0,0,0,0-1.742" transform="translate(-21.191 -105.389)"/><path class="d" d="M32.054,142.268h-7.4a.871.871,0,0,0,0,1.742h7.4a.871.871,0,0,0,0-1.742" transform="translate(-21.191 -126.779)"/><path class="d" d="M117.524,142.268h-.871a.871.871,0,0,0,0,1.742h.871a.871.871,0,0,0,0-1.742" transform="translate(-103.177 -126.779)"/><path class="d" d="M358.408,174.272H346.65a.871.871,0,0,0,0,1.742h11.758a.871.871,0,0,0,0-1.742" transform="translate(-308.134 -155.299)"/><path class="d" d="M358.408,198.276H346.65a.871.871,0,0,0,0,1.742h11.758a.871.871,0,0,0,0-1.742" transform="translate(-308.134 -176.689)"/><path class="d" d="M353.182,222.28H346.65a.871.871,0,0,0,0,1.742h6.532a.871.871,0,0,0,0-1.742" transform="translate(-308.134 -198.08)"/><path class="d" d="M431.523,222.28h-.871a.871.871,0,0,0,0,1.742h.871a.871.871,0,0,0,0-1.742" transform="translate(-382.99 -198.08)"/><path class="c" d="M137.115,147.635a11.323,11.323,0,1,0,0,16.015,11.321,11.321,0,0,0,0-16.015m-2.464,13.551a7.839,7.839,0,1,1,0-11.087h0a7.84,7.84,0,0,1,0,11.086Z" transform="translate(-104.963 -128.607)"/><path class="c" d="M137.115,147.635a11.323,11.323,0,1,0,0,16.015,11.321,11.321,0,0,0,0-16.015m-2.464,13.551a7.839,7.839,0,1,1,0-11.087h0a7.84,7.84,0,0,1,0,11.086Z" transform="translate(-104.963 -128.607)"/><path class="c" d="M312.662,337.484l-1.848,1.848a2.178,2.178,0,0,1-3.08,0l-9.666-9.777-2.745-2.745,4.926-4.927,7.672,7.672,4.739,4.849a2.179,2.179,0,0,1,0,3.08" transform="translate(-263.172 -286.839)"/><path class="d" d="M146.994,169.947a1.308,1.308,0,0,1,0,1.848l-1.848,1.848a1.307,1.307,0,0,1-1.848,0l-9.661-9.771-.01-.01-2.124-2.124,3.7-3.7Zm-16.11-12.518a.02.02,0,0,0,.008-.008l.612-.612,1.232,1.232-1.232,1.233-1.231-1.233Zm-1.228-1.236a10.448,10.448,0,1,1,0-14.782,10.446,10.446,0,0,1,0,14.782m6.159,0a.871.871,0,0,0-1.231,0l-.616.616-1.432-1.432a12.172,12.172,0,1,0-3.7,3.7l1.432,1.432-.616.616a.871.871,0,0,0,0,1.231l12.411,12.522a3.054,3.054,0,0,0,4.311,0l1.848-1.848a3.054,3.054,0,0,0,0-4.312Z" transform="translate(-98.121 -121.766)"/><path class="d" d="M156.735,170.908a8.706,8.706,0,1,0,0,12.319,8.7,8.7,0,0,0,0-12.319M155.5,181.995a6.965,6.965,0,1,1,0-9.855,6.964,6.964,0,0,1,0,9.855" transform="translate(-126.431 -150.031)"/></g></svg>