<svg xmlns="http://www.w3.org/2000/svg" xmlns:xlink="http://www.w3.org/1999/xlink" width="54" height="54" viewBox="0 0 54 54"><defs><style>.a{fill:none;}.b{clip-path:url(#a);}.c{fill:#79e9e8;}.d{fill:#273656;}.e{fill:#0bdab2;}.f{fill:#4e67b4;}</style><clipPath id="a"><rect class="a" width="54" height="54"/></clipPath></defs><g class="b"><path class="c" d="M58.081,48.023h-47.9A2.177,2.177,0,0,0,8,50.2H8V80.286H60.258V50.2a2.177,2.177,0,0,0-2.176-2.178ZM52.419,73.729a2.177,2.177,0,0,1-2.176,2.179H18.016a2.177,2.177,0,0,1-2.177-2.177h0V48.894H52.419Z" transform="translate(-7.129 -42.795)"/><path class="c" d="M197.935,414.449H184l1.742-6.052h10.452Z" transform="translate(-163.968 -363.935)"/><path class="c" d="M116.581,10.182v3.05H80v-3.05A2.177,2.177,0,0,1,82.176,8H114.4a2.177,2.177,0,0,1,2.177,2.177Z" transform="translate(-71.29 -7.133)"/><path class="d" d="M50.952,4.357h-4.79V3.05A3.053,3.053,0,0,0,43.113,0H10.887A3.052,3.052,0,0,0,7.839,3.05V4.357H3.048A3.052,3.052,0,0,0,0,7.407V42.284a3.053,3.053,0,0,0,3.048,3.05H20.566L19.4,49.643H17.419a.871.871,0,0,0-.871.871v1.743h-6.1a.871.871,0,0,0,0,1.743h33.1a.871.871,0,0,0,0-1.743h-6.1V50.514a.871.871,0,0,0-.871-.871H34.6l-1.162-4.309H50.952A3.053,3.053,0,0,0,54,42.284V7.407a3.053,3.053,0,0,0-3.048-3.05M9.581,3.05a1.308,1.308,0,0,1,1.306-1.307H43.113A1.308,1.308,0,0,1,44.419,3.05V5.228H9.581Zm0,3.921H44.419V30.934a1.308,1.308,0,0,1-1.306,1.307H10.887a1.308,1.308,0,0,1-1.306-1.307ZM35.71,52.257H18.29v-.871H35.71ZM21.241,49.643,22.4,45.334h9.2l1.162,4.309Zm31.017-7.359a1.308,1.308,0,0,1-1.306,1.307H3.048a1.308,1.308,0,0,1-1.306-1.307V38.363H52.258Zm0-5.664H1.742V7.407A1.308,1.308,0,0,1,3.048,6.1h4.79V30.934a3.052,3.052,0,0,0,3.048,3.05H43.113a3.052,3.052,0,0,0,3.048-3.05V6.1h4.79a1.308,1.308,0,0,1,1.306,1.307Z"/><path class="d" d="M97.742,24.011h-.871a.871.871,0,0,0,0,1.743h.871a.871.871,0,0,0,0-1.743" transform="translate(-85.548 -21.397)"/><path class="d" d="M129.742,24.011h-.871a.871.871,0,0,0,0,1.743h.871a.871.871,0,0,0,0-1.743" transform="translate(-114.065 -21.397)"/><path class="d" d="M161.742,24.011h-.871a.871.871,0,0,0,0,1.743h.871a.871.871,0,0,0,0-1.743" transform="translate(-142.581 -21.397)"/><path class="d" d="M248.871,81.781h13.935a.871.871,0,0,0,0-1.743H248.871a.871.871,0,0,0,0,1.743" transform="translate(-221 -71.324)"/><path class="d" d="M248.871,113.8h13.935a.871.871,0,0,0,0-1.743H248.871a.871.871,0,0,0,0,1.743" transform="translate(-221 -99.855)"/><path class="d" d="M248.871,145.812h6.968a.871.871,0,0,0,0-1.743h-6.968a.871.871,0,0,0,0,1.743" transform="translate(-221 -128.384)"/><path class="d" d="M336.871,144.069a.871.871,0,0,0,0,1.743h.871a.871.871,0,0,0,0-1.743Z" transform="translate(-299.419 -128.384)"/><path class="d" d="M104.871,185.831h29.613a.871.871,0,0,0,0-1.743H104.871a.871.871,0,0,0,0,1.743" transform="translate(-92.677 -164.046)"/><path class="d" d="M104.871,217.847h29.613a.871.871,0,0,0,0-1.743H104.871a.871.871,0,0,0,0,1.743" transform="translate(-92.677 -192.577)"/><path class="d" d="M104.871,249.862h6.968a.871.871,0,0,0,0-1.743h-6.968a.871.871,0,0,0,0,1.743" transform="translate(-92.677 -221.106)"/><path class="d" d="M193.742,248.119h-.871a.871.871,0,0,0,0,1.743h.871a.871.871,0,0,0,0-1.743" transform="translate(-171.097 -221.106)"/><rect class="e" width="3.02" height="3.02" transform="translate(14.917 14.353)"/><rect class="e" width="3.02" height="3.02" transform="translate(14.917 8.314)"/><rect class="f" width="3.02" height="3.02" transform="translate(11.897 11.333)"/><rect class="c" width="3.02" height="3.02" transform="translate(14.917 11.333)"/><rect class="f" width="3.02" height="3.02" transform="translate(17.936 11.333)"/></g></svg>