<svg xmlns="http://www.w3.org/2000/svg" xmlns:xlink="http://www.w3.org/1999/xlink" width="53.997" height="54" viewBox="0 0 53.997 54"><defs><style>.a{fill:#009c9a;}.b{clip-path:url(#a);}.c{fill:#79e9e8;}.d{fill:#fff;}</style><clipPath id="a"><rect class="a" width="53.997" height="54"/></clipPath></defs><g class="b"><path class="c" d="M67.16,321.58q0,.441-.039.871H64.494a7.19,7.19,0,0,0,.053-.871,6.967,6.967,0,1,0-13.935,0,7.19,7.19,0,0,0,.053.871H48.039Q48,322.021,48,321.58a9.58,9.58,0,1,1,19.16,0" transform="translate(-42.775 -278.034)"/><path class="a" d="M57.58,312A9.58,9.58,0,0,0,48,321.58q0,.441.039.871a9.58,9.58,0,0,0,19.082,0q.039-.429.039-.871A9.58,9.58,0,0,0,57.58,312m0,16.547a6.969,6.969,0,0,1-6.914-6.1,7.19,7.19,0,0,1-.053-.871,6.967,6.967,0,0,1,13.935,0,7.19,7.19,0,0,1-.053.871,6.969,6.969,0,0,1-6.914,6.1" transform="translate(-42.775 -278.034)"/><path class="a" d="M60.255,10.177v3.048H8V10.177A2.177,2.177,0,0,1,10.176,8h47.9a2.177,2.177,0,0,1,2.177,2.176Z" transform="translate(-7.129 -7.129)"/><path class="d" d="M50.948,45.287A3.052,3.052,0,0,0,54,42.239V3.048A3.052,3.052,0,0,0,50.948,0H3.048A3.052,3.052,0,0,0,0,3.048V42.239a3.052,3.052,0,0,0,3.048,3.048H4.5a10.451,10.451,0,0,0,20.61,0ZM14.806,52.255a8.709,8.709,0,1,1,8.709-8.709,8.709,8.709,0,0,1-8.709,8.709m10.451-8.709a10.451,10.451,0,1,0-20.9,0H3.048a1.307,1.307,0,0,1-1.306-1.306V6.967H52.255V42.239a1.308,1.308,0,0,1-1.306,1.306Zm27-38.32H1.742V3.048A1.307,1.307,0,0,1,3.048,1.742h47.9a1.307,1.307,0,0,1,1.306,1.306Z"/><path class="d" d="M71.838,328a7.838,7.838,0,1,0,7.838,7.838A7.838,7.838,0,0,0,71.838,328m0,13.935a6.1,6.1,0,1,1,6.1-6.1,6.1,6.1,0,0,1-6.1,6.1" transform="translate(-57.033 -292.293)"/><path class="d" d="M110.967,358.967a2.616,2.616,0,0,1-2.613,2.613.871.871,0,1,1-1.742,0h-.871a.871.871,0,0,1,0-1.742h2.613a.871.871,0,1,0,0-1.742h-1.742a2.613,2.613,0,0,1,0-5.226.871.871,0,1,1,1.742,0h.871a.871.871,0,0,1,0,1.742h-2.613a.871.871,0,1,0,0,1.742h1.742a2.616,2.616,0,0,1,2.613,2.613" transform="translate(-92.678 -313.68)"/><path class="d" d="M24.871,25.742h.871a.871.871,0,0,0,0-1.742h-.871a.871.871,0,0,0,0,1.742" transform="translate(-21.387 -21.387)"/><path class="d" d="M56.871,25.742h.871a.871.871,0,0,0,0-1.742h-.871a.871.871,0,1,0,0,1.742" transform="translate(-49.904 -21.387)"/><path class="d" d="M88.871,25.742h.871a.871.871,0,0,0,0-1.742h-.871a.871.871,0,0,0,0,1.742" transform="translate(-78.42 -21.387)"/><rect class="c" width="2.613" height="19.16" transform="translate(43.67 13.638)"/><rect class="c" width="2.613" height="19.16" transform="translate(43.67 13.638)"/><path class="a" d="M159.385,197.321v6.967a1.742,1.742,0,0,1-1.742,1.742h-19.16a1.742,1.742,0,0,1-1.742-1.742v-6.967Z" transform="translate(-121.855 -175.84)"/><path class="a" d="M159.385,135.063V136.8H136.741v-1.742a1.742,1.742,0,0,1,1.742-1.742h19.16a1.742,1.742,0,0,1,1.742,1.742" transform="translate(-121.855 -118.807)"/><rect class="a" width="2.613" height="19.16" transform="translate(43.67 13.638)"/><path class="d" d="M150.514,142.739a2.616,2.616,0,0,0,2.613-2.613V127.934a2.616,2.616,0,0,0-2.613-2.613h-19.16a2.616,2.616,0,0,0-2.613,2.613v12.193a2.616,2.616,0,0,0,2.613,2.613Zm.871-2.613a.872.872,0,0,1-.871.871h-19.16a.872.872,0,0,1-.871-.871v-6.1h20.9Zm0-7.838h-20.9v-1.742h20.9Zm0-3.484h-20.9v-.871a.872.872,0,0,1,.871-.871h19.16a.872.872,0,0,1,.871.871Z" transform="translate(-114.726 -111.678)"/><path class="d" d="M154.483,245.321h-.871a.871.871,0,1,0,0,1.742h.871a.871.871,0,1,0,0-1.742" transform="translate(-136.113 -218.614)"/><path class="d" d="M274.483,245.321h-.871a.871.871,0,1,0,0,1.742h.871a.871.871,0,1,0,0-1.742" transform="translate(-243.049 -218.614)"/><path class="d" d="M306.483,245.321h-.871a.871.871,0,1,0,0,1.742h.871a.871.871,0,0,0,0-1.742" transform="translate(-271.566 -218.614)"/><path class="d" d="M394.009,138.174h2.613a.871.871,0,0,0,.871-.871v-19.16a.871.871,0,0,0-.871-.871h-2.613a.871.871,0,0,0-.871.871V137.3a.871.871,0,0,0,.871.871m.871-19.16h.871v17.418h-.871Z" transform="translate(-350.339 -104.505)"/><path class="d" d="M377.847,85.272h-7.838a.871.871,0,0,0-.871.871V112.27a.871.871,0,0,0,.871.871h7.838a.871.871,0,0,0,.871-.871V86.143a.871.871,0,0,0-.871-.871m-.871,26.127h-6.1V87.014h6.1Z" transform="translate(-328.952 -75.989)"/></g></svg>