<svg xmlns="http://www.w3.org/2000/svg" xmlns:xlink="http://www.w3.org/1999/xlink" width="54" height="54.097" viewBox="0 0 54 54.097"><defs><style>.a{fill:none;}.b{clip-path:url(#a);}.c{fill:#79e9e8;}.d{fill:#273656;}</style><clipPath id="a"><rect class="a" width="54" height="54.097"/></clipPath></defs><g class="b"><path class="c" d="M116,182.769a1.745,1.745,0,0,1-3.428.461,17.331,17.331,0,0,1,1.683-3.55v1.344A1.745,1.745,0,0,1,116,182.769" transform="translate(-100.291 -160.081)"/><path class="c" d="M169.076,171.546a1.745,1.745,0,1,1,2.468,0,1.745,1.745,0,0,1-2.468,0" transform="translate(-150.178 -150.18)"/><path class="c" d="M184.514,114.252a1.745,1.745,0,0,1-3.49,0H179.68a17.334,17.334,0,0,1,3.55-1.683,1.743,1.743,0,0,1,1.284,1.683" transform="translate(-160.081 -100.29)"/><path class="c" d="M131.051,125.815l.873-2.618-.873-2.618-3.49.873-1.745-1.745,1.745-5.236,7.195-4.316a17.411,17.411,0,0,0-13.3-6.155,17.823,17.823,0,0,0-1.986.111,13.095,13.095,0,0,1-15.355,15.355,17.819,17.819,0,0,0-.111,1.986,17.37,17.37,0,0,0,3.15,10l3.831-1.277,5.236,3.49,4.363.873-1.745,2.618.654,1.636a17.676,17.676,0,0,0,1.963.109,17.368,17.368,0,0,0,8.763-2.357,7.807,7.807,0,0,1,1.3-3.062l-3.959-3.307-.873-.873h-.873v-.873Zm-10.471.873-4.363-2.618,1.745-2.618,2.618,1.745h3.49Z" transform="translate(-92.656 -92.656)"/><path class="c" d="M395.139,194.7s0,0,0,0v0H392l1.522-4.566s0,0,0,0l0,0h0q.139.265.268.537t.25.546c.041.1.083.192.123.289s.072.178.107.266.066.168.1.252a17.059,17.059,0,0,1,.7,2.363c.017.077.034.155.05.232l.013.064" transform="translate(-349.242 -169.4)"/><path class="c" d="M171.545,169.073a1.745,1.745,0,1,1-2.468,0,1.745,1.745,0,0,1,2.468,0h0" transform="translate(-150.179 -150.176)"/><path class="c" d="M33.745,112A1.745,1.745,0,1,1,32,113.744,1.745,1.745,0,0,1,33.745,112" transform="translate(-28.51 -99.783)"/><path class="c" d="M58.415,169.079a1.745,1.745,0,1,1-2.468,0,1.745,1.745,0,0,1,2.468,0" transform="translate(-49.389 -150.182)"/><path class="c" d="M58.415,55.95a1.745,1.745,0,1,1-2.468,0,1.745,1.745,0,0,1,2.468,0" transform="translate(-49.389 -49.393)"/><path class="c" d="M112.876,181.255a17.249,17.249,0,0,1,.869-1.575v1.344a1.744,1.744,0,1,1-.869.231" transform="translate(-99.784 -160.081)"/><path class="c" d="M113.745,32A1.745,1.745,0,1,1,112,33.744,1.745,1.745,0,0,1,113.745,32" transform="translate(-99.784 -28.509)"/><path class="c" d="M102.981,99.489h2.147a17.51,17.51,0,0,0-5.637,5.637V102.98a3.49,3.49,0,1,1,3.49-3.49" transform="translate(-85.529 -85.528)"/><path class="c" d="M169.076,58.416a1.745,1.745,0,1,1,2.468,0,1.745,1.745,0,0,1-2.468,0" transform="translate(-150.178 -49.39)"/><path class="c" d="M184.514,113.732a1.745,1.745,0,0,1-3.49,0H179.68a17.29,17.29,0,0,1,1.575-.869,1.745,1.745,0,0,1,3.259.869" transform="translate(-160.081 -99.77)"/><path class="c" d="M396.3,394.559a2.617,2.617,0,1,1-.767-1.851,2.618,2.618,0,0,1,.767,1.851" transform="translate(-348.405 -349.19)"/><path class="c" d="M103,99.489a3.49,3.49,0,1,1-1.022-2.468A3.49,3.49,0,0,1,103,99.489" transform="translate(-85.545 -85.528)"/><path class="c" d="M113.745,32A1.745,1.745,0,1,1,112,33.744,1.745,1.745,0,0,1,113.745,32" transform="translate(-99.784 -28.509)"/><path class="c" d="M115.474,193.744A1.746,1.746,0,1,1,113.727,192h0a1.745,1.745,0,0,1,1.745,1.745" transform="translate(-99.768 -171.057)"/><path class="c" d="M195.49,113.744a1.746,1.746,0,1,1-1.284-1.683,1.745,1.745,0,0,1,1.284,1.683" transform="translate(-171.058 -99.783)"/><path class="c" d="M33.745,112A1.745,1.745,0,1,1,32,113.744,1.745,1.745,0,0,1,33.745,112" transform="translate(-28.51 -99.783)"/><path class="c" d="M171.547,58.415a1.745,1.745,0,1,1,0-2.468,1.745,1.745,0,0,1,0,2.468" transform="translate(-150.181 -49.389)"/><path class="c" d="M58.417,171.544a1.745,1.745,0,1,1,0-2.468,1.745,1.745,0,0,1,0,2.468h0" transform="translate(-49.391 -150.178)"/><path class="c" d="M171.547,171.544a1.745,1.745,0,1,1,0-2.468,1.745,1.745,0,0,1,0,2.468h0" transform="translate(-150.181 -150.178)"/><path class="c" d="M58.417,58.415a1.745,1.745,0,1,1,0-2.468,1.745,1.745,0,0,1,0,2.468" transform="translate(-49.391 -49.389)"/><path class="c" d="M128.873,112a.873.873,0,1,1-.873.873.873.873,0,0,1,.873-.873" transform="translate(-114.038 -99.783)"/><path class="c" d="M396.3,394.559a2.617,2.617,0,1,1-.767-1.851,2.618,2.618,0,0,1,.767,1.851" transform="translate(-348.405 -349.19)"/><path class="c" d="M407.932,407.941a.873.873,0,1,1-.873.873.872.872,0,0,1,.873-.873" transform="translate(-362.659 -363.445)"/><path class="c" d="M407.6,194.764l-1.614-4.554a17.287,17.287,0,0,1,1.614,4.554" transform="translate(-361.706 -169.463)"/><path class="c" d="M405.951,190.12l0,.01a.009.009,0,0,0,0-.008Z" transform="translate(-361.671 -169.383)"/><path class="c" d="M420.791,231.982h0v0Z" transform="translate(-374.892 -206.676)"/><path class="d" d="M41.59,36.2a2.618,2.618,0,1,0,0-1.745H39.607a4.339,4.339,0,0,0-.637-1.531l1.4-1.406a2.618,2.618,0,1,0-1.234-1.234l-1.406,1.4a4.344,4.344,0,0,0-1.531-.637V29.073a2.618,2.618,0,1,0-1.745,0v1.983a4.344,4.344,0,0,0-1.531.637l-1.406-1.4a2.62,2.62,0,1,0-1.234,1.234l1.4,1.406a4.339,4.339,0,0,0-.637,1.531H29.073a2.618,2.618,0,1,0,0,1.745h1.983a4.339,4.339,0,0,0,.637,1.531l-1.4,1.406a2.612,2.612,0,1,0,1.237,1.231l1.4-1.4a4.34,4.34,0,0,0,1.531.637V41.59a2.618,2.618,0,1,0,1.745,0V39.607a4.34,4.34,0,0,0,1.531-.637l1.4,1.4a2.624,2.624,0,1,0,1.238-1.231L38.97,37.735a4.337,4.337,0,0,0,.637-1.531Zm2.467-1.745a.873.873,0,1,1-.873.873.873.873,0,0,1,.873-.873m-3.173-5.915a.867.867,0,1,1-.009.009l.009-.009M29.778,29.778a.873.873,0,1,1,0-1.235.873.873,0,0,1,0,1.235M26.605,36.2a.873.873,0,1,1,.873-.873.873.873,0,0,1-.873.873m14.279,4.68a.873.873,0,1,1,0,1.235h0a.873.873,0,0,1,0-1.234M35.331,25.733a.873.873,0,1,1-.873.873.873.873,0,0,1,.873-.873m0,19.2a.873.873,0,1,1,.873-.873.873.873,0,0,1-.873.873m0-6.981a2.618,2.618,0,1,1,2.618-2.618,2.618,2.618,0,0,1-2.618,2.618" transform="translate(-21.37 -21.37)"/><path class="d" d="M128.873,112a.873.873,0,1,1-.873.873.873.873,0,0,1,.873-.873" transform="translate(-114.038 -99.783)"/><path class="d" d="M370.4,364.3a.873.873,0,0,0-.873.873h-.983a3.471,3.471,0,0,0-.374-.9l.7-.7a.873.873,0,0,0,1.234-1.234l-.617-.617-.618-.617a.873.873,0,1,0-1.242,1.226l.008.008-.7.7a3.471,3.471,0,0,0-.9-.374v-.983a.873.873,0,0,0,0-1.745h-1.745a.873.873,0,1,0,0,1.745v.983a3.471,3.471,0,0,0-.9.374l-.7-.7a.873.873,0,0,0-1.234-1.234l-.616.616-.618.618a.873.873,0,0,0,1.234,1.234l.7.7a3.466,3.466,0,0,0-.374.9H360.8a.873.873,0,1,0-1.745,0v1.745a.873.873,0,0,0,1.745,0h.983a3.468,3.468,0,0,0,.374.9l-.7.7a.873.873,0,1,0-1.234,1.234l1.235,1.234a.873.873,0,0,0,1.234-1.234l.7-.7a3.472,3.472,0,0,0,.9.374v.983a.873.873,0,0,0,0,1.745h1.745a.873.873,0,1,0,0-1.745v-.983a3.465,3.465,0,0,0,.9-.374l.7.7a.873.873,0,0,0,1.234,1.234l1.234-1.234a.873.873,0,1,0-1.234-1.235l-.7-.7a3.469,3.469,0,0,0,.374-.9h.983a.873.873,0,0,0,1.745,0v-1.745a.872.872,0,0,0-.873-.873m-5.236,3.49a1.745,1.745,0,1,1,1.745-1.745,1.745,1.745,0,0,1-1.745,1.745" transform="translate(-319.892 -320.68)"/><path class="d" d="M407.932,407.941a.873.873,0,1,1-.873.873.872.872,0,0,1,.873-.873" transform="translate(-362.659 -363.445)"/><path class="d" d="M45.356,36.645A18.327,18.327,0,0,0,28.8,10.471c-.432,0-.868.017-1.3.048A13.962,13.962,0,1,0,10.519,27.493c-.03.434-.048.871-.048,1.3A18.327,18.327,0,0,0,36.548,45.4a8.726,8.726,0,1,0,8.808-8.757M44.39,23.167q.226.622.4,1.266h-.824Zm-2.551-4.594a16.521,16.521,0,0,1,1.491,2.255l-1.4,4.2a.873.873,0,0,0,.828,1.149h2.411a16.6,16.6,0,0,1-1.895,10.7,8.73,8.73,0,0,0-4.379,2.547l-3.417-2.562-.828-.829-.018-.016,4.154-2.076a.873.873,0,0,0,.437-.505l.873-2.618a.869.869,0,0,0,0-.552l-.873-2.618a.871.871,0,0,0-1.039-.57l-3.012.753-1.014-1.014,1.475-4.423ZM1.745,13.962A12.216,12.216,0,1,1,13.962,26.178,12.216,12.216,0,0,1,1.745,13.962M25.452,44.018a.873.873,0,0,0-.084.808l.084.209a16.588,16.588,0,0,1-9.521-5.8l2.265-.755,4.88,3.254a.865.865,0,0,0,.313.129l3.086.617Zm11.341-.7a16.575,16.575,0,0,1-8,2.055c-.455,0-.905-.02-1.351-.056l-.286-.714,1.491-2.236a.872.872,0,0,0-.555-1.339L23.9,40.191l-5.092-3.4a.873.873,0,0,0-.76-.1L14.854,37.76A16.489,16.489,0,0,1,12.216,28.8q0-.488.029-.978A13.962,13.962,0,0,0,27.818,12.246c.327-.02.654-.029.978-.029A16.534,16.534,0,0,1,40.673,17.24l-6.226,3.832a.869.869,0,0,0-.371.467l-1.745,5.236a.874.874,0,0,0,.21.893l1.745,1.745a.875.875,0,0,0,.829.229l2.706-.676.526,1.575-.667,2L32.768,35a.874.874,0,0,0-.482.781v.873a.873.873,0,0,0,.873.873h.512l.616.617a1.123,1.123,0,0,0,.094.081l3.454,2.591a8.692,8.692,0,0,0-1.043,2.51m8.481,9.029a6.981,6.981,0,1,1,6.981-6.981,6.981,6.981,0,0,1-6.981,6.981"/><path class="d" d="M216.725,257.744H213.5l-2.4-1.6a.873.873,0,0,0-1.21.242l-1.745,2.618a.873.873,0,0,0,.242,1.21l.035.023,4.363,2.618a.873.873,0,0,0,1.066-.131l3.49-3.49a.873.873,0,0,0-.617-1.49m-3.626,3.264-2.994-1.8.753-1.13,1.892,1.261a.872.872,0,0,0,.484.147h1.384Z" transform="translate(-185.311 -228.076)"/><path class="d" d="M248.873,33.744h14.834V41.6a.873.873,0,1,0,1.745,0V32.872a.873.873,0,0,0-.873-.873H248.873a.873.873,0,0,0,0,1.745" transform="translate(-220.949 -28.509)"/><path class="d" d="M148.942,405.235h-19.2v-4.363a.873.873,0,1,0-1.745,0v5.236a.873.873,0,0,0,.873.873h20.07a.873.873,0,1,0,0-1.745" transform="translate(-114.038 -356.369)"/><path class="c" d="M62.686,177.549h0a.873.873,0,1,0,.872-.873.872.872,0,0,0-.872.873" transform="translate(-55.848 -157.406)"/></g></svg>