<svg xmlns="http://www.w3.org/2000/svg" xmlns:xlink="http://www.w3.org/1999/xlink" width="54" height="54.016" viewBox="0 0 54 54.016"><defs><style>.a{fill:none;}.b{fill:#79e9e8;}.c{clip-path:url(#a);}.d{fill:#273656;}.e{fill:#fff;}</style><clipPath id="a"><rect class="a" width="54" height="54.016"/></clipPath></defs><path class="b" d="M210.461,424.159l-.871,3.484h-8.71l-.871-3.484Z" transform="translate(-178.235 -377.981)"/><path class="b" d="M210.461,424.159l-.871,3.484h-8.71l-.871-3.484Z" transform="translate(-178.235 -377.981)"/><path class="b" d="M71.182,185.461H109.5V159.332H71.182Zm33.1-9.58H93.827v-5.226h10.451Z" transform="translate(-63.433 -141.986)"/><g class="c"><path class="d" d="M7.412,128.159a3.052,3.052,0,0,0-3.048,3.048v28.306H.88a.871.871,0,0,0-.871.871v4.79a3.052,3.052,0,0,0,3.048,3.048h47.9a3.052,3.052,0,0,0,3.048-3.048v-4.79a.871.871,0,0,0-.871-.871H49.653V131.207a3.052,3.052,0,0,0-3.048-3.048ZM45.3,156.9H8.719V132.514H45.3Zm1.306-27a1.308,1.308,0,0,1,1.306,1.306v28.306H6.106V131.207A1.308,1.308,0,0,1,7.412,129.9Zm-38.757.871a.871.871,0,0,0-.871.871v26.129a.871.871,0,0,0,.871.871H46.169a.871.871,0,0,0,.871-.871V131.643a.871.871,0,0,0-.871-.871Zm23.271,30.483L30.683,163H23.334l-.435-1.742Zm21.148,3.919a1.308,1.308,0,0,1-1.306,1.306H3.057a1.307,1.307,0,0,1-1.306-1.306v-3.919H21.1l.707,2.824a.871.871,0,0,0,.845.66h8.71a.871.871,0,0,0,.845-.66l.707-2.824H52.266Z" transform="translate(-0.008 -114.206)"/><path class="d" d="M272.881,263.127h10.451a.871.871,0,0,0,.871-.871V257.03a.871.871,0,0,0-.871-.871H272.881a.871.871,0,0,0-.871.871v5.226a.871.871,0,0,0,.871.871m.871-5.226h8.71v3.484h-8.71Z" transform="translate(-242.397 -228.271)"/><path class="d" d="M320.88,280.159a.871.871,0,1,1-.871.871.871.871,0,0,1,.871-.871" transform="translate(-285.17 -249.658)"/><path class="d" d="M296.88,280.159a.871.871,0,1,1-.871.871.871.871,0,0,1,.871-.871" transform="translate(-263.783 -249.658)"/><path class="d" d="M344.88,280.159a.871.871,0,1,1-.871.871.871.871,0,0,1,.871-.871" transform="translate(-306.557 -249.658)"/><path class="e" d="M22.189,8.148A13.876,13.876,0,1,0,36.17,22.024,13.928,13.928,0,0,0,22.189,8.148" transform="translate(-7.315 -7.261)"/><path class="d" d="M14.873,0A14.763,14.763,0,1,0,29.747,14.763,14.819,14.819,0,0,0,14.873,0m.871,18.247a.871.871,0,0,1-1.742,0v-.871h1.742Zm-.871-2.613a3.484,3.484,0,0,1-3.484-3.484v-.021a23.928,23.928,0,0,0,6.968-1.184V12.15a3.484,3.484,0,0,1-3.484,3.484m9.58,8.012V21.73a3.488,3.488,0,0,0-3.391-3.483l-3.576-.715v-.86A5.227,5.227,0,0,0,20.1,12.15V9.537a4.359,4.359,0,0,0-4.355-4.355H14A4.359,4.359,0,0,0,9.647,9.537V12.15a5.227,5.227,0,0,0,2.613,4.522v.86l-3.576.715A3.488,3.488,0,0,0,5.293,21.73v1.915a13.065,13.065,0,1,1,19.161,0" transform="translate(0.001)"/><path class="b" d="M104.624,67.064v-.85a2.616,2.616,0,0,1,2.613-2.613h1.742a2.618,2.618,0,0,1,2.569,2.138c-1.812.925-5.052,1.248-6.924,1.325" transform="translate(-93.234 -56.677)"/><path class="b" d="M77.688,181.186a.871.871,0,0,0-.871.871v2.74a13.123,13.123,0,0,1-8.71,0v-2.74a.871.871,0,1,0-1.742,0v1.975a13.051,13.051,0,0,1-1.742-1.105v-3.483a1.744,1.744,0,0,1,1.742-1.742.82.82,0,0,0,.171-.017l3.521-.7a2.613,2.613,0,0,0,4.81,0l3.521.7a.82.82,0,0,0,.171.017,1.744,1.744,0,0,1,1.742,1.742v3.483a13.051,13.051,0,0,1-1.742,1.105v-1.975a.871.871,0,0,0-.871-.871" transform="translate(-57.588 -157.713)"/></g></svg>